<svg t="1712804851152" class="icon" viewBox="0 0 1024 1024" version="1.1" xmlns="http://www.w3.org/2000/svg" p-id="978" width="200" height="200"><path d="M531.413333 213.333333a201.685333 201.685333 0 0 1 201.685334 201.685334h31.018666a170.666667 170.666667 0 0 1 170.666667 170.666666V597.333333a170.666667 170.666667 0 0 1-170.666667 170.666667H298.666667a170.666667 170.666667 0 0 1-170.666667-170.666667v-11.648a170.666667 170.666667 0 0 1 170.666667-170.666666h31.018666A201.685333 201.685333 0 0 1 531.413333 213.333333z" fill="#d3006a" p-id="979"></path><path d="M531.413333 213.333333c8.106667 0 16.128 0.469333 24.021334 1.408a277.333333 277.333333 0 1 1-416.426667 310.698667 170.666667 170.666667 0 0 1 159.658667-110.421333h31.018666A201.685333 201.685333 0 0 1 531.413333 213.333333z" fill="#d3006a" p-id="980"></path><path d="M447.786667 231.466667a213.333333 213.333333 0 1 1-308.864 293.973333A170.752 170.752 0 0 1 298.666667 414.976h31.018666a201.728 201.728 0 0 1 115.242667-182.272l2.858667-1.28z" fill="#d3006a" p-id="981"></path><path d="M531.413333 213.333333a201.685333 201.685333 0 0 1 201.685334 201.685334h31.018666a170.666667 170.666667 0 0 1 170.666667 170.666666V597.333333a170.666667 170.666667 0 0 1-170.666667 170.666667H298.666667a170.666667 170.666667 0 0 1-170.666667-170.666667v-11.648a170.666667 170.666667 0 0 1 170.666667-170.666666h31.018666A201.685333 201.685333 0 0 1 531.413333 213.333333z m0 42.666667a159.018667 159.018667 0 0 0-159.061333 159.018667v42.666666H298.666667a128 128 0 0 0-128 128V597.333333a128 128 0 0 0 128 128h465.493333a128 128 0 0 0 128-128v-11.648a128 128 0 0 0-128-128h-73.728v-42.666666A159.018667 159.018667 0 0 0 531.413333 256z" fill="#d3006a" p-id="982"></path></svg>